<svg width="86" height="86" viewBox="0 0 86 86" fill="none" xmlns="http://www.w3.org/2000/svg">
<g clip-path="url(#clip0_4929_3571)">
<rect width="738.167" height="738.167" fill="white"/>
<rect width="738.167" height="738.167" fill="white"/>
<g clip-path="url(#clip1_4929_3571)">
<rect width="86" height="86" fill="url(#paint0_linear_4929_3571)"/>
<g filter="url(#filter0_f_4929_3571)">
<circle cx="27.1056" cy="75.2077" r="30.2741" fill="#32E6B9" fill-opacity="0.4"/>
</g>
<g filter="url(#filter1_f_4929_3571)">
<circle cx="71.6822" cy="93.7789" r="27.6714" fill="#32E6B9"/>
</g>
<path d="M60.2888 5.45537C61.0763 4.74902 61.1237 4.72185 61.7014 4.68718C62.6371 4.61881 63.4942 5.06739 64.9532 6.39563C68.3612 9.4926 73.1062 15.8601 76.0566 21.2974L77.197 23.4073L78.807 24.2076C80.3615 24.9931 82.9115 26.6042 83.9764 27.4679C84.4578 27.866 84.5256 27.874 85.0264 27.6792C87.2864 26.799 90.5235 27.9657 93.3791 30.7051C95.9497 33.1688 98.4117 37.3781 99.355 40.8915C99.4927 41.4569 99.6759 42.6729 99.7424 43.5782C99.9576 46.7569 98.9379 49.2953 96.9747 50.4445C96.5736 50.6761 96.5472 50.7391 96.5584 51.7392C96.6489 56.4999 95.3657 61.2519 92.7878 65.886C89.8779 71.0892 84.696 76.4716 77.6834 81.5427C73.9176 84.283 65.0089 89.4741 60.9807 91.2964C51.3308 95.641 43.5947 97.307 36.8751 96.4837C32.867 95.998 28.3307 94.4332 25.6464 92.6171C24.9397 92.1286 24.8275 92.0992 24.2875 92.2537C21.414 93.079 17.6504 91.3824 14.4533 87.8335C13.1781 86.4148 11.1206 82.9315 10.4534 81.0676C8.91005 76.7054 9.21658 72.7687 11.2724 70.4179C11.8033 69.8127 11.8202 69.7873 11.7042 68.7692C11.5126 67.1025 11.4257 64.6358 11.5132 63.0439L11.5828 61.557L9.35023 57.6081C5.89321 51.4569 3.69724 46.2919 2.85008 42.3456C2.4029 40.1818 2.43041 39.2216 2.97958 38.5113C3.31388 38.0823 4.41053 37.6386 5.73234 37.3944C9.05981 36.8103 16.3169 37.3389 24.3907 38.7644L25.2298 38.9092L27.0723 37.2782C30.1317 34.5683 32.1643 33.0489 35.9112 30.7126C39.8166 28.269 44.2245 26.2593 49.188 24.6676L50.7809 24.1572L51.6558 21.8581C54.7901 13.5844 58.0001 7.48464 60.2888 5.45537ZM34.0349 47.8534C30.4924 49.8986 28.7212 50.9213 27.4197 52.0674C22.1493 56.7083 20.1792 64.059 22.4228 70.7133C22.9769 72.3565 23.9997 74.1281 26.0448 77.6703C28.0898 81.2125 29.1128 82.9841 30.2587 84.2855C34.8997 89.556 42.2511 91.5258 48.9055 89.2819C50.5488 88.7278 52.3201 87.7052 55.8625 85.66L76.2403 73.8948C79.7826 71.8497 81.5541 70.8268 82.8556 69.6809C88.126 65.0399 90.0958 57.6885 87.852 51.0341C87.2978 49.3909 86.2751 47.6193 84.23 44.0771C82.1849 40.5348 81.162 38.7633 80.016 37.4618C75.375 32.1917 68.024 30.2225 61.3697 32.4663C59.7265 33.0204 57.9549 34.0431 54.4127 36.0883L34.0349 47.8534Z" fill="url(#paint1_linear_4929_3571)"/>
<rect x="35.9985" y="62.0938" width="8.05" height="16.7192" rx="4.025" transform="rotate(-30 35.9985 62.0938)" fill="white"/>
<rect x="57.7178" y="49.5527" width="8.05" height="16.7192" rx="4.025" transform="rotate(-30 57.7178 49.5527)" fill="white"/>
</g>
</g>
<defs>
<filter id="filter0_f_4929_3571" x="-32.0697" y="16.0323" width="118.351" height="118.351" filterUnits="userSpaceOnUse" color-interpolation-filters="sRGB">
<feFlood flood-opacity="0" result="BackgroundImageFix"/>
<feBlend mode="normal" in="SourceGraphic" in2="BackgroundImageFix" result="shape"/>
<feGaussianBlur stdDeviation="14.4506" result="effect1_foregroundBlur_4929_3571"/>
</filter>
<filter id="filter1_f_4929_3571" x="20.3599" y="42.4566" width="102.644" height="102.645" filterUnits="userSpaceOnUse" color-interpolation-filters="sRGB">
<feFlood flood-opacity="0" result="BackgroundImageFix"/>
<feBlend mode="normal" in="SourceGraphic" in2="BackgroundImageFix" result="shape"/>
<feGaussianBlur stdDeviation="11.8254" result="effect1_foregroundBlur_4929_3571"/>
</filter>
<linearGradient id="paint0_linear_4929_3571" x1="43" y1="0" x2="43" y2="86" gradientUnits="userSpaceOnUse">
<stop stop-color="#6C4DFF"/>
<stop offset="1" stop-color="#583ED3"/>
</linearGradient>
<linearGradient id="paint1_linear_4929_3571" x1="32.3203" y1="21.4203" x2="69.8932" y2="86.4986" gradientUnits="userSpaceOnUse">
<stop stop-color="white" stop-opacity="0.8"/>
<stop offset="0.437689" stop-color="white"/>
</linearGradient>
<clipPath id="clip0_4929_3571">
<rect width="86" height="86" rx="21.5" fill="white"/>
</clipPath>
<clipPath id="clip1_4929_3571">
<rect width="86" height="86" fill="white"/>
</clipPath>
</defs>
</svg>
